<svg width="17" height="17" viewBox="0 0 17 17" fill="none" xmlns="http://www.w3.org/2000/svg">
<path d="M13.882 6.93935C13.882 8.43056 13.3979 9.80805 12.5825 10.9256L16.6955 15.0419C17.1016 15.448 17.1016 16.1075 16.6955 16.5136C16.2894 16.9197 15.6298 16.9197 15.2237 16.5136L11.1108 12.3974C9.99316 13.216 8.61567 13.6969 7.12447 13.6969C3.39158 13.6969 0.366943 10.6722 0.366943 6.93935C0.366943 3.20647 3.39158 0.181831 7.12447 0.181831C10.8573 0.181831 13.882 3.20647 13.882 6.93935ZM7.12447 11.6176C7.73883 11.6176 8.34717 11.4966 8.91477 11.2615C9.48236 11.0264 9.99809 10.6818 10.4325 10.2474C10.8669 9.81298 11.2115 9.29725 11.4466 8.72965C11.6817 8.16206 11.8027 7.55371 11.8027 6.93935C11.8027 6.32499 11.6817 5.71665 11.4466 5.14905C11.2115 4.58146 10.8669 4.06572 10.4325 3.63131C9.99809 3.19689 9.48236 2.85229 8.91477 2.61718C8.34717 2.38208 7.73883 2.26107 7.12447 2.26107C6.5101 2.26107 5.90176 2.38208 5.33416 2.61718C4.76657 2.85229 4.25084 3.19689 3.81642 3.63131C3.382 4.06572 3.0374 4.58146 2.80229 5.14905C2.56719 5.71665 2.44618 6.32499 2.44618 6.93935C2.44618 7.55371 2.56719 8.16206 2.80229 8.72965C3.0374 9.29725 3.382 9.81298 3.81642 10.2474C4.25084 10.6818 4.76657 11.0264 5.33416 11.2615C5.90176 11.4966 6.5101 11.6176 7.12447 11.6176Z" fill="#20381E"/>
</svg>
