<svg width="220" height="48" viewBox="0 0 220 48" fill="none" xmlns="http://www.w3.org/2000/svg">
<path d="M63.4975 32.2377L83.6846 17.0728H67.891L69.3954 9.94511H100.231L98.9248 16.1221L79.1726 31.0893H95.2832L93.7785 38.2167H62.23L63.4975 32.2377Z" fill="#1F9F19"/>
<path d="M120.079 15.964C115.329 15.964 112.004 17.8643 110.777 19.2496H110.698L112.665 9.94511H102.768L96.7642 38.2167H106.66L108.798 28.238C109.549 24.6349 111.846 23.0909 114.458 23.0909C116.793 23.0909 118.021 24.2789 117.427 27.0103L115.052 38.2167H124.948L127.877 24.4373C129.144 18.4185 125.542 15.964 120.079 15.964Z" fill="#1F9F19"/>
<path d="M160.175 31.7226C158.947 33.9797 156.889 35.8407 154.078 37.1079C151.267 38.3746 147.705 39.0878 143.153 39.0878C132.743 39.0878 127.636 35.2866 129.298 27.3675C130.882 19.8834 137.493 15.6863 147.23 15.6863C156.81 15.6863 163.182 18.8941 160.728 29.7033H138.958C138.601 31.2479 139.749 33.6234 144.103 33.6234C146.676 33.6234 148.299 33.0691 149.645 31.7229H160.175V31.7226ZM151.782 24.7142C152.099 22.3783 150.16 20.9136 146.755 20.9136C143.311 20.9136 141.095 21.9823 139.986 24.7142H151.782Z" fill="#1F9F19"/>
<path d="M165.674 16.5577H175.253L174.383 20.7153H174.462C177.747 17.3498 181.27 15.964 184.675 15.964C185.743 15.964 186.851 16.0428 187.88 16.2011L186.02 25.0706C184.358 24.6349 182.972 24.2789 181.231 24.2789C177.708 24.2789 173.71 25.4275 172.72 30.0994L170.978 38.2166H161.082L165.674 16.5577Z" fill="#1F9F19"/>
<path d="M205.809 15.6863C216.972 15.6863 221.049 19.409 219.347 27.3675C217.645 35.3653 211.985 39.0878 200.822 39.0878C189.658 39.0878 185.581 35.3653 187.284 27.3675C188.986 19.4091 194.646 15.6863 205.809 15.6863ZM202.207 32.6731C206.205 32.6731 208.263 30.8517 208.975 27.3675C209.728 23.9619 208.461 22.1015 204.464 22.1015C200.505 22.1015 198.407 23.9619 197.654 27.3675C196.942 30.8517 198.249 32.6731 202.207 32.6731Z" fill="#1F9F19"/>
<path d="M37.2168 37.0486L33.1158 31.2943H22.639L36.8981 11.3423H36.8924L36.9167 11.308H11.1333L15.2357 17.0637H25.694L11.4105 37.0486H11.4348H37.2168Z" fill="#1F9F19"/>
<path d="M23.8901 47.9256C10.7169 47.9256 0 37.2087 0 24.0355C0 10.8623 10.7169 0.145416 23.8901 0.145416C37.0633 0.145416 47.7802 10.8623 47.7802 24.0355C47.7802 37.2087 37.0633 47.9256 23.8901 47.9256ZM23.8901 4.43217C13.0803 4.43217 4.28676 13.2257 4.28676 24.0355C4.28676 34.8453 13.0803 43.6388 23.8901 43.6388C34.6999 43.6388 43.4934 34.8453 43.4934 24.0355C43.4934 13.2257 34.6999 4.43217 23.8901 4.43217Z" fill="#1F9F19"/>
</svg>
