<svg xmlns="http://www.w3.org/2000/svg" width="77.202" height="61.151" viewBox="0 0 77.202 61.151">
	<style>
    path {
      fill: #051432;
      
    }
    @media (prefers-color-scheme: dark) {
      path {
        fill: #ffffff;
      }
    }
  </style>

  <path  d="M1527.59,198.474c-.366.617-.744,1.21-1.138,1.762a12.645,12.645,0,0,1-2.057,2.317,4.923,4.923,0,0,1-.932.632,2.052,2.052,0,0,1-.655.213,1.115,1.115,0,0,1-.191.007c.007-.182.024-.4.055-.623a25.6,25.6,0,0,1,.79-3.434c.357-1.258.767-2.575,1.153-3.989a26.113,26.113,0,0,0,.924-4.767,10.478,10.478,0,0,0-.22-3.284,7.357,7.357,0,0,0-.847-2.06,6.656,6.656,0,0,0-1.683-1.859,6.862,6.862,0,0,0-1.014-.634c-.166-.082-.343-.166-.505-.236-.144-.057-.286-.115-.435-.168a8.184,8.184,0,0,0-1.947-.44,7.942,7.942,0,0,0-3.983.659,10.48,10.48,0,0,0-2.746,1.82,16.489,16.489,0,0,0-1.844,1.986,31.5,31.5,0,0,0-2.6,3.927c-.738,1.293-1.4,2.574-2.024,3.841-1.253,2.532-2.388,5.022-3.571,7.38-.591,1.175-1.192,2.317-1.818,3.374a18.981,18.981,0,0,1-1.836,2.65c.011-.079.021-.158.033-.238a34.147,34.147,0,0,1,.8-3.58c.674-2.477,1.526-5.019,2.41-7.567,1.773-5.116,3.737-10.252,5.412-15.679.416-1.362.812-2.746,1.161-4.185a33.676,33.676,0,0,0,.825-4.587,16.082,16.082,0,0,0,.054-2.73,10.11,10.11,0,0,0-.254-1.655,7.67,7.67,0,0,0-.773-1.982,6.338,6.338,0,0,0-1.819-2.023,6.273,6.273,0,0,0-1.24-.683c-.188-.074-.371-.139-.559-.2s-.394-.11-.592-.157a6.71,6.71,0,0,0-2.467-.071,7.476,7.476,0,0,0-2.074.651,10.418,10.418,0,0,0-2.684,1.914,17.522,17.522,0,0,0-1.755,1.976,34.156,34.156,0,0,0-2.547,3.892c-1.468,2.58-2.676,5.149-3.824,7.719-2.277,5.137-4.273,10.271-6.307,15.342-1.015,2.534-2.032,5.052-3.085,7.528s-2.138,4.916-3.309,7.233c-.585,1.158-1.194,2.283-1.831,3.33a20.308,20.308,0,0,1-1.761,2.515c.025-.182.052-.369.088-.562a26.228,26.228,0,0,1,.916-3.434c.792-2.4,1.81-4.871,2.856-7.367s2.149-5.034,3.191-7.664c.52-1.317,1.027-2.659,1.495-4.057a36.582,36.582,0,0,0,1.218-4.45,18.817,18.817,0,0,0,.339-2.577,11.172,11.172,0,0,0-.231-3.15,8.17,8.17,0,0,0-.678-1.883,7.075,7.075,0,0,0-3.218-3.156,7.573,7.573,0,0,0-2.062-.666,7.4,7.4,0,0,0-2.195-.037,8.125,8.125,0,0,0-1.918.5,10.919,10.919,0,0,0-2.769,1.638,20.924,20.924,0,0,0-3.49,3.684,58.2,58.2,0,0,0-4.676,7.491c-.747,1.383-1.456,2.769-2.147,4.141l8.581.6c.174-.33.346-.662.523-.988a50.822,50.822,0,0,1,4-6.451,13.356,13.356,0,0,1,2.125-2.291c.094-.077.183-.142.268-.2,0,.1,0,.208-.01.321a11.032,11.032,0,0,1-.2,1.492,28.8,28.8,0,0,1-.959,3.47c-.4,1.2-.861,2.424-1.348,3.655-.976,2.464-2.057,4.959-3.128,7.51s-2.148,5.152-3.078,7.959a33.955,33.955,0,0,0-1.187,4.505,17.024,17.024,0,0,0-.282,2.662,10.058,10.058,0,0,0,.454,3.343,7.453,7.453,0,0,0,.973,1.955,6.915,6.915,0,0,0,1.683,1.683,7.171,7.171,0,0,0,.978.578,7.422,7.422,0,0,0,1.069.422,6.689,6.689,0,0,0,2.48.265,7.168,7.168,0,0,0,2.2-.547,8.683,8.683,0,0,0,1.627-.9,12.991,12.991,0,0,0,2.193-1.982,26.7,26.7,0,0,0,2.831-3.918c.786-1.294,1.479-2.582,2.131-3.869,1.3-2.574,2.438-5.144,3.532-7.711s2.125-5.13,3.148-7.683c2.044-5.1,4.024-10.182,6.19-15.065,1.085-2.432,2.219-4.825,3.464-7.009a27.062,27.062,0,0,1,1.89-2.915c-.125.88-.319,1.828-.552,2.786-.3,1.224-.653,2.475-1.037,3.733-1.555,5.048-3.5,10.158-5.32,15.4-.909,2.628-1.8,5.283-2.573,8.094a41.746,41.746,0,0,0-.98,4.441,19.769,19.769,0,0,0-.242,2.561,10.126,10.126,0,0,0,.426,3.338,6.526,6.526,0,0,0,1.242,2.254,5.956,5.956,0,0,0,1.172,1.046,6.414,6.414,0,0,0,1.218.629,7.677,7.677,0,0,0,4.14.445,8.08,8.08,0,0,0,1.94-.6,9.543,9.543,0,0,0,1.535-.89,13.024,13.024,0,0,0,2.179-1.989,25.863,25.863,0,0,0,2.807-3.964c.77-1.3,1.443-2.586,2.083-3.858,1.273-2.541,2.41-5.039,3.589-7.417.589-1.188,1.186-2.344,1.806-3.43a23.8,23.8,0,0,1,1.922-2.93,8.624,8.624,0,0,1,.943-1.028c.068-.062.134-.117.2-.168a19.815,19.815,0,0,1-.659,3.182c-.335,1.23-.738,2.53-1.13,3.907a32.675,32.675,0,0,0-1.025,4.575,12.39,12.39,0,0,0-.059,3.019,7.928,7.928,0,0,0,.467,1.946,6.732,6.732,0,0,0,1.275,2.106,6.665,6.665,0,0,0,2,1.512l.262.125.126.057.1.039.385.152c.265.094.531.184.81.259a9.254,9.254,0,0,0,3.543.273,9.922,9.922,0,0,0,3.254-.989,12.724,12.724,0,0,0,2.479-1.643,20.342,20.342,0,0,0,3.417-3.785,39.869,39.869,0,0,0,3.318-5.707Zm-5.571,4.787-.023-.008.01,0,.025.011Z" transform="translate(-1459 -162.127)"/></svg>